<svg xmlns="http://www.w3.org/2000/svg" xmlns:xlink="http://www.w3.org/1999/xlink" width="110" height="110" viewBox="0 0 110 110">
    <defs>
        <circle id="zd-quick-optometry-a" cx="55" cy="55" r="55"/>
        <path id="zd-quick-optometry-c" d="M0 .155h79.763v5.823H0z"/>
        <path id="zd-quick-optometry-e" d="M22 11c0 6.075-4.925 11-11 11S0 17.075 0 11 4.925 0 11 0s11 4.925 11 11"/>
        <path id="zd-quick-optometry-g" d="M22 11c0 6.075-4.925 11-11 11S0 17.075 0 11 4.925 0 11 0s11 4.925 11 11"/>
    </defs>
    <g fill="none" fill-rule="evenodd">
        <mask id="zd-quick-optometry-b" fill="#fff">
            <use xlink:href="#zd-quick-optometry-a"/>
        </mask>
        <g mask="url(#zd-quick-optometry-b)">
            <g transform="translate(16 55)">
                <mask id="zd-quick-optometry-d" fill="#fff">
                    <use xlink:href="#zd-quick-optometry-c"/>
                </mask>
                <path fill="#001E4B" d="M77.583 5.978H.18c-.65 0-1.18-.5-1.18-1.11V1.266C-1 .655-.47.155.18.155h77.403c.649 0 1.18.5 1.18 1.112v3.6c0 .611-.531 1.111-1.18 1.111" mask="url(#zd-quick-optometry-d)"/>
            </g>
            <path fill="#001E4B" d="M50 58c0 8.285-6.716 15-15 15-8.284 0-15-6.715-15-15 0-8.284 6.716-15 15-15 8.284 0 15 6.716 15 15M91 58c0 8.285-6.716 15-15 15-8.284 0-15-6.715-15-15 0-8.284 6.716-15 15-15 8.284 0 15 6.716 15 15"/>
            <g transform="translate(65 47)">
                <mask id="zd-quick-optometry-f" fill="#fff">
                    <use xlink:href="#zd-quick-optometry-e"/>
                </mask>
                <use fill="#FFF" xlink:href="#zd-quick-optometry-e"/>
                <path fill="#F1F1F1" d="M11 4h19v31H11z" mask="url(#zd-quick-optometry-f)" transform="rotate(45 20.5 19.5)"/>
            </g>
            <g transform="translate(24 47)">
                <mask id="zd-quick-optometry-h" fill="#fff">
                    <use xlink:href="#zd-quick-optometry-g"/>
                </mask>
                <use fill="#FFF" xlink:href="#zd-quick-optometry-g"/>
                <path fill="#F1F1F1" d="M12 4h19v31H12z" mask="url(#zd-quick-optometry-h)" transform="rotate(45 21.5 19.5)"/>
            </g>
        </g>
        <path fill="#00234B" fill-opacity=".124" d="M26.961 26.11s20.056.94 12.667 24.333c0 0-.183-16.693-12.667-24.333z" mask="url(#b)" transform="rotate(-60 34.112 38.276)"/>
        <path fill="#00234B" fill-opacity=".124" d="M67.961 27.11s20.056.94 12.667 24.333c0 0-3.345-13.3-12.667-24.333z" mask="url(#b)" transform="scale(-1 1) rotate(-60 0 169.374)"/>
    </g>
</svg>
